<svg version="1.2" xmlns="http://www.w3.org/2000/svg" viewBox="0 0 32 23" width="32" height="23">
	<title>BrainFlix-logo-svg</title>
	<style>
		.s0 { fill: #000000 } 
		.s1 { fill: #0095ff } 
		.s2 { fill: #ffffff } 
	</style>
	<path id="Layer" fill-rule="evenodd" class="s0" d="m39.3 6h4.7q0.7 0 1.4 0.1 0.6 0.2 1.2 0.6 0.5 0.3 0.8 0.9 0.3 0.6 0.3 1.4 0 1-0.6 1.7-0.5 0.6-1.5 0.9v0.1q0.6 0 1.1 0.3 0.5 0.2 0.8 0.6 0.3 0.4 0.5 0.9 0.2 0.5 0.2 1.1 0 1-0.4 1.6-0.3 0.7-1 1.1-0.6 0.4-1.5 0.5-0.8 0.2-1.6 0.2h-4.4zm2.2 4.9h1.9q1.1 0 1.6-0.4 0.6-0.4 0.6-1.1 0-0.8-0.6-1.2-0.5-0.4-1.7-0.4h-1.8zm0 5.3h2q0.4 0 0.8 0 0.5-0.1 0.9-0.2 0.4-0.2 0.6-0.6 0.3-0.3 0.3-0.9 0-1-0.6-1.4-0.6-0.3-2-0.3h-2zm8.7-6.4h2v1.3h0.1q0.3-0.7 0.9-1.1 0.7-0.4 1.5-0.4 0.2 0 0.3 0.1 0.2 0 0.4 0.1v1.9q-0.3 0-0.5-0.1-0.2 0-0.5 0-0.7 0-1.1 0.3-0.5 0.2-0.7 0.5-0.2 0.4-0.3 0.7-0.1 0.4-0.1 0.5v4.4h-2zm11.7 7h-0.1q-0.4 0.7-1.1 1.1-0.7 0.3-1.5 0.3-0.5 0-1.1-0.2-0.5-0.1-0.9-0.4-0.4-0.3-0.7-0.8-0.3-0.5-0.3-1.1 0-0.6 0.3-1.1 0.2-0.5 0.6-0.8 0.4-0.3 0.9-0.5 0.6-0.2 1.1-0.3 0.6-0.1 1.2-0.1 0.6 0 1.1 0h0.5v-0.2q0-0.8-0.5-1.2-0.6-0.4-1.4-0.4-0.6 0-1.2 0.3-0.6 0.2-1 0.6l-1-1.1q0.6-0.7 1.6-1 0.9-0.3 1.8-0.3 0.9 0 1.5 0.2 0.6 0.2 1 0.5 0.4 0.3 0.6 0.7 0.2 0.4 0.3 0.8 0.1 0.4 0.1 0.8 0 0.4 0 0.7v4.7h-1.8zm-0.1-2.6h-0.5q-0.4 0-0.9 0.1-0.5 0-1 0.1-0.5 0.2-0.8 0.4-0.3 0.3-0.3 0.7 0 0.3 0.1 0.5 0.1 0.2 0.3 0.3 0.2 0.1 0.5 0.2 0.3 0.1 0.5 0.1 1.1 0 1.6-0.5 0.5-0.5 0.5-1.4zm4.2-4.5h2v8.1h-2zm-0.3-2.7q0-0.5 0.3-0.9 0.4-0.3 1-0.3 0.5 0 0.9 0.3 0.4 0.4 0.4 0.9 0 0.5-0.4 0.9-0.4 0.3-0.9 0.3-0.6 0-1-0.4-0.3-0.3-0.3-0.8zm4.6 2.7h2v1.4q0.3-0.7 0.9-1.1 0.6-0.5 1.6-0.5 0.8 0 1.4 0.3 0.6 0.3 0.9 0.7 0.4 0.5 0.5 1.1 0.2 0.5 0.2 1.2v5.1h-2.1v-4.1q0-0.4 0-0.8 0-0.4-0.2-0.8-0.1-0.3-0.4-0.6-0.3-0.2-0.9-0.2-0.5 0-0.8 0.2-0.4 0.1-0.6 0.4-0.2 0.3-0.3 0.7-0.1 0.3-0.1 0.8v4.4h-2.1zm10-3.9h7.8v2h-5.7v3.1h5.3v2h-5.3v5h-2.1zm9.6-0.8h2v12.8h-2zm4.4 4.7h2.1v8.2h-2.1zm-0.3-2.8q0-0.5 0.4-0.9 0.4-0.3 0.9-0.3 0.6 0 1 0.3 0.4 0.4 0.4 0.9 0 0.5-0.4 0.9-0.4 0.3-1 0.3-0.5 0-0.9-0.3-0.4-0.4-0.4-0.9zm6.8 6.5l-2.8-3.7h2.5l1.6 2.4 1.8-2.4h2.3l-2.8 3.7 3.3 4.4h-2.5l-2.1-2.9-2.2 2.9h-2.4z"/>
	<path id="Layer" class="s1" d="m4.2 0c-3.4 0-4.2 5.1-4.2 7.7v7.6c0 2.6 0.8 7.7 4.2 7.7h23.6c3.4 0 4.2-5.1 4.2-7.7v-7.6c0-2.6-0.8-7.7-4.2-7.7z"/>
	<path id="Layer" class="s2" d="m22.5 11.5l-10.5 5.2v-10.4z"/>
</svg>